<svg width="87" height="23" viewBox="0 0 87 23" fill="none" xmlns="http://www.w3.org/2000/svg">
<path d="M0 8C0 3.58172 3.27308 0 7.31064 0H16.9059C20.9434 0 24.2165 3.58172 24.2165 8V16H7.31064C3.27308 16 0 12.4183 0 8Z" fill="#4969DB"/>
<path d="M16.9319 2H7.28465C4.7475 2 2.69073 4.46243 2.69073 7.5C2.69073 10.5376 4.7475 13 7.28465 13H16.9319C19.469 13 21.5258 10.5376 21.5258 7.5C21.5258 4.46243 19.469 2 16.9319 2Z" fill="#A5B4FC"/>
<path d="M7.17525 11C8.66129 11 9.86597 9.65685 9.86597 8C9.86597 6.34315 8.66129 5 7.17525 5C5.6892 5 4.48453 6.34315 4.48453 8C4.48453 9.65685 5.6892 11 7.17525 11Z" fill="black"/>
<path d="M8.52062 8C9.26365 8 9.86598 7.32843 9.86598 6.5C9.86598 5.67157 9.26365 5 8.52062 5C7.7776 5 7.17526 5.67157 7.17526 6.5C7.17526 7.32843 7.7776 8 8.52062 8Z" fill="white"/>
<path d="M17.0412 11C18.5273 11 19.732 9.65685 19.732 8C19.732 6.34315 18.5273 5 17.0412 5C15.5552 5 14.3505 6.34315 14.3505 8C14.3505 9.65685 15.5552 11 17.0412 11Z" fill="black"/>
<path d="M18.3866 8C19.1296 8 19.732 7.32843 19.732 6.5C19.732 5.67157 19.1296 5 18.3866 5C17.6436 5 17.0412 5.67157 17.0412 6.5C17.0412 7.32843 17.6436 8 18.3866 8Z" fill="white"/>
<path d="M35.1091 15.15C34.2391 15.15 33.4341 15.03 32.6941 14.79C31.9641 14.54 31.3341 14.185 30.8041 13.725C30.2741 13.255 29.8591 12.68 29.5591 12C29.2691 11.32 29.1241 10.555 29.1241 9.705C29.1241 8.925 29.2791 8.21 29.5891 7.56C29.8991 6.9 30.3341 6.325 30.8941 5.835C31.4541 5.345 32.1141 4.965 32.8741 4.695C33.6441 4.425 34.4791 4.29 35.3791 4.29C36.0891 4.29 36.7391 4.37 37.3291 4.53C37.9291 4.69 38.4591 4.9 38.9191 5.16C39.3891 5.42 39.7741 5.71 40.0741 6.03L38.5291 7.71C38.2491 7.48 37.9491 7.28 37.6291 7.11C37.3091 6.94 36.9591 6.805 36.5791 6.705C36.2091 6.595 35.8041 6.54 35.3641 6.54C34.8541 6.54 34.3791 6.62 33.9391 6.78C33.5091 6.94 33.1291 7.165 32.7991 7.455C32.4791 7.735 32.2291 8.07 32.0491 8.46C31.8791 8.84 31.7941 9.255 31.7941 9.705C31.7941 10.235 31.8891 10.7 32.0791 11.1C32.2691 11.5 32.5291 11.835 32.8591 12.105C33.1891 12.365 33.5691 12.565 33.9991 12.705C34.4291 12.835 34.8891 12.9 35.3791 12.9C35.8091 12.9 36.2091 12.85 36.5791 12.75C36.9591 12.65 37.2841 12.515 37.5541 12.345C37.8241 12.165 38.0341 11.955 38.1841 11.715C38.3441 11.475 38.4241 11.21 38.4241 10.92V10.59L38.7691 11.16H35.1541V9.195H40.8391C40.8591 9.325 40.8741 9.48 40.8841 9.66C40.8941 9.84 40.8991 10.01 40.8991 10.17C40.9091 10.32 40.9141 10.425 40.9141 10.485C40.9141 11.215 40.7741 11.87 40.4941 12.45C40.2141 13.03 39.8141 13.52 39.2941 13.92C38.7841 14.31 38.1741 14.615 37.4641 14.835C36.7541 15.045 35.9691 15.15 35.1091 15.15ZM44.4089 15V3.9H46.8089V15H44.4089ZM54.2082 15.135C53.3882 15.135 52.6682 14.96 52.0482 14.61C51.4282 14.25 50.9432 13.76 50.5932 13.14C50.2432 12.52 50.0682 11.815 50.0682 11.025C50.0682 10.215 50.2432 9.5 50.5932 8.88C50.9532 8.25 51.4432 7.76 52.0632 7.41C52.6932 7.05 53.4282 6.87 54.2682 6.87C54.7382 6.87 55.1732 6.93 55.5732 7.05C55.9732 7.17 56.3282 7.33 56.6382 7.53C56.9482 7.72 57.1982 7.935 57.3882 8.175C57.5882 8.415 57.7132 8.655 57.7632 8.895L57.2082 8.925V7.035H59.5932V15H57.1632V12.915L57.6732 13.02C57.6332 13.28 57.5132 13.535 57.3132 13.785C57.1132 14.035 56.8582 14.265 56.5482 14.475C56.2382 14.675 55.8832 14.835 55.4832 14.955C55.0832 15.075 54.6582 15.135 54.2082 15.135ZM54.8382 13.11C55.3382 13.11 55.7632 13.025 56.1132 12.855C56.4732 12.675 56.7482 12.43 56.9382 12.12C57.1382 11.8 57.2382 11.435 57.2382 11.025C57.2382 10.595 57.1382 10.225 56.9382 9.915C56.7482 9.605 56.4732 9.36 56.1132 9.18C55.7632 9 55.3382 8.91 54.8382 8.91C54.3582 8.91 53.9382 9 53.5782 9.18C53.2282 9.36 52.9532 9.605 52.7532 9.915C52.5532 10.225 52.4532 10.595 52.4532 11.025C52.4532 11.435 52.5532 11.8 52.7532 12.12C52.9532 12.43 53.2282 12.675 53.5782 12.855C53.9382 13.025 54.3582 13.11 54.8382 13.11ZM63.9499 15V7.035H66.2299L66.3349 9.855L65.7199 9.645C65.8599 9.125 66.0949 8.66 66.4249 8.25C66.7649 7.83 67.1599 7.495 67.6099 7.245C68.0699 6.995 68.5499 6.87 69.0499 6.87C69.3399 6.87 69.6149 6.9 69.8749 6.96C70.1449 7.02 70.3749 7.095 70.5649 7.185L69.9049 9.795C69.7349 9.675 69.5049 9.585 69.2149 9.525C68.9349 9.455 68.6549 9.42 68.3749 9.42C68.0549 9.42 67.7699 9.47 67.5199 9.57C67.2799 9.67 67.0699 9.81 66.8899 9.99C66.7199 10.16 66.5899 10.355 66.4999 10.575C66.4099 10.785 66.3649 11.015 66.3649 11.265V15H63.9499ZM77.52 15.15C76.51 15.15 75.625 14.975 74.865 14.625C74.115 14.265 73.53 13.775 73.11 13.155C72.7 12.535 72.495 11.835 72.495 11.055C72.495 10.425 72.615 9.855 72.855 9.345C73.105 8.825 73.445 8.385 73.875 8.025C74.305 7.655 74.805 7.37 75.375 7.17C75.955 6.97 76.57 6.87 77.22 6.87C77.86 6.87 78.45 6.97 78.99 7.17C79.54 7.37 80.015 7.65 80.415 8.01C80.825 8.36 81.135 8.78 81.345 9.27C81.565 9.76 81.665 10.3 81.645 10.89L81.63 11.595H74.115L73.77 10.155H79.68L79.425 10.47V10.17C79.395 9.9 79.28 9.665 79.08 9.465C78.88 9.265 78.62 9.11 78.3 9C77.99 8.88 77.64 8.82 77.25 8.82C76.77 8.82 76.34 8.895 75.96 9.045C75.58 9.195 75.28 9.425 75.06 9.735C74.85 10.035 74.745 10.415 74.745 10.875C74.745 11.305 74.87 11.69 75.12 12.03C75.37 12.36 75.73 12.625 76.2 12.825C76.67 13.015 77.22 13.11 77.85 13.11C78.43 13.11 78.91 13.045 79.29 12.915C79.67 12.775 79.99 12.615 80.25 12.435L81.315 13.995C80.975 14.245 80.6 14.455 80.19 14.625C79.78 14.795 79.345 14.925 78.885 15.015C78.435 15.105 77.98 15.15 77.52 15.15Z" fill="#4969DB"/>
</svg>
